<?xml version="1.0" encoding="utf-8"?>
<!-- Generator: Adobe Illustrator 19.1.1, SVG Export Plug-In . SVG Version: 6.00 Build 0)  -->
<svg version="1.1" xmlns="http://www.w3.org/2000/svg" xmlns:xlink="http://www.w3.org/1999/xlink" x="0px" y="0px" width="518.5px"
	 height="105.5px" viewBox="0 0 518.5 105.5" style="enable-background:new 0 0 518.5 105.5;" xml:space="preserve">
<style type="text/css">
	.st0{fill:#FFFFFF;}
	.st1{fill:#F37029;}
	.st2{fill:#75C043;}
	.st3{display:none;fill:#F15A29;stroke:#000000;stroke-width:4;stroke-miterlimit:10;}
	.st4{display:none;}
	.st5{display:inline;}
	.st6{fill:#ED1C24;}
</style>
<g id="Layer_1">
</g>
<g id="Layer_2">
	<g>
		<g>
			<path class="st0" d="M290.4,69c-3.7-2.9-5.4-7.2-5.4-11.8V45.7c0-4.2-4.3-5.6-7.9-5.6v-3.3c3.5,0,7.9-1.4,7.9-5.6V19.6
				c0-4.6,1.7-9,5.4-11.8l2.8,2.6c-3.2,2.7-4.3,5.1-4.3,9.3v11.5c0,3.1-2.2,6.5-5.3,7.3c3.1,0.6,5.3,4.1,5.3,7.2v11.5
				c0,4.2,1.2,6.6,4.3,9.3L290.4,69z"/>
			<path class="st0" d="M305.5,43.6c-2.8,0-5.1-2.3-5.1-5.1s2.2-5.1,5.1-5.1c2.8,0,5,2.3,5,5.1S308.2,43.6,305.5,43.6z"/>
			<path class="st1" d="M345.6,34.1c-2.4,0-5.9-1.2-8-2.5l2.1-4.2c1.5,1.1,3.8,2,5.7,2c4.7,0,8.5-3.5,8.5-8.3
				c0-5.8-5.6-8.3-10.7-8.3c-10.7,0-17.8,9.4-17.8,19.6c0,11,7.7,17.7,18.5,17.7c4.2,0,9.7-1.5,12.7-4.7v5.9
				c-3.7,2.5-8.3,3.5-12.7,3.5c-13.6,0-23.5-8.6-23.5-22.5c0-13,9.4-24.2,22.8-24.2c5.8,0,11.6,2.2,14.4,7.5
				c0.9,1.7,1.3,3.6,1.3,5.5C358.9,28.6,352.9,34.1,345.6,34.1z"/>
			<path class="st1" d="M394,53.5c-1.4,1-3.1,1.3-4.7,1.3c-2.9,0-5.1-1.9-5.9-4.6c-1.2,2.8-3.8,4.7-6.9,4.7c-5.2,0-8.6-4-8.6-9V31.6
				h4.6v13.8c0,3.1,1.7,5.3,4.9,5.3c3.1,0,5.6-2.9,5.6-6.8V31.6h4.6v15.7c0,1.9,1.2,3.2,3.1,3.2c1.3,0,2.4-0.4,3.3-1.3V53.5z"/>
			<path class="st1" d="M413.7,38.6c-1.5,0-2.7-0.8-3.1-2.2c-1.7,0.8-2.9,2.4-3.4,4.2c-0.1,0.2-0.3,1-0.3,1.2v12.5h-4.6V31.6h4.6
				v3.9c1.3-2.5,3.7-4.5,6.6-4.5c2.1,0,3.9,1.7,3.9,3.8C417.4,36.9,415.8,38.6,413.7,38.6z"/>
			<path class="st1" d="M437.4,53.5c-1.4,1-3.1,1.3-4.7,1.3c-3.9,0-6.3-3.3-6.3-7v-39h4.6v38.6c0,1.9,1.2,3.2,3.1,3.2
				c1.3,0,2.4-0.4,3.3-1.3V53.5z"/>
			<path class="st1" d="M465.5,58.8c0,4.6-3.3,9.7-8.1,10.2l-1.7-4c2.9-0.4,5.2-3.5,5.2-6.3v-7.9c-1.4,2.4-3.8,3.9-6.6,3.9
				c-5.2,0-8.6-4-8.6-9V31.6h4.6v13.8c0,3.1,1.7,5.3,4.9,5.3c3,0,5.6-2.9,5.6-6.9V31.6h4.6V58.8z"/>
			<path class="st0" d="M482.7,43.6c-2.8,0-5.1-2.3-5.1-5.1s2.2-5.1,5.1-5.1c2.8,0,5,2.3,5,5.1S485.4,43.6,482.7,43.6z"/>
			<path class="st0" d="M511,40c-3.6,0-7.9,1.4-7.9,5.6v11.5c0,4.6-1.8,9-5.4,11.8l-2.8-2.6c3.2-2.7,4.3-5.1,4.3-9.3V45.7
				c0-3.1,2.1-6.6,5.3-7.2c-3.1-0.8-5.3-4.2-5.3-7.3V19.6c0-4.2-1.2-6.6-4.3-9.3l2.8-2.6c3.6,2.9,5.4,7.2,5.4,11.8v11.5
				c0,4.2,4.3,5.6,7.9,5.6V40z"/>
		</g>
		<g>
			<path class="st2" d="M8.7,11H44c17.7,0,41.8,4.4,41.8,27.3c0,9.3-4.4,15.9-10.8,20.4L94.6,97H57.4L44.6,68.7h-0.5V97H8.7V11z
				 M46.7,49c5.6,0,8.1-3,8.1-6.7c0-3.7-2.6-6.5-8.1-6.5h-2.6V49H46.7z"/>
			<path class="st2" d="M98.3,97V11h36c16.6,0,29.5,5.1,38.2,13.4c7.6,7.3,12.5,17.1,12.5,29.6c0,11.9-4.5,22.1-12.2,29.5
				C163.8,92,150.8,97,134.6,97H98.3z M133.7,69h0.8c5.9,0,10.5-1.9,13.3-4.9c2.4-2.5,3.9-5.9,3.9-10.1c0-4.3-1.5-7.8-3.9-10.3
				c-2.5-2.6-6.5-4.6-13.1-4.6h-1.1V69z"/>
			<path class="st2" d="M193.5,11h35.4v55.5h26.6V97h-62V11z"/>
		</g>
	</g>
	<path class="st3" d="M480.7,113.2H-9.8v0c-12.5,0-22.8-10.2-22.8-22.8c0-12.5,10.2-22.8,22.8-22.8c2.8,0,5,2.2,5,5s-2.2,5-5,5
		c-7,0-12.8,5.7-12.8,12.8c0,7,5.7,12.8,12.8,12.8l3.4,0c0.2,0,0.3,0,0.5,0c0.2,0,0.3,0,0.3,0v0h469.8c0.5-0.1,1.1-0.2,1.8-0.2
		c0.5,0,1.4,0,2.6,0c2.4,0,6.3,0,12,0c31.5,0,55.3-23.8,55.3-55.3c0-29.4-25.8-55.3-55.3-55.3c-2.8,0-5-2.2-5-5s2.2-5,5-5
		c35.4,0,65.3,29.9,65.3,65.3c0,37.2-28.1,65.3-65.3,65.3V113.2z"/>
	<g class="st4">
		<g class="st5">
			<path class="st0" d="M106.5,121.1c-0.7,0-1.4-0.2-2-0.5c-2.2-1.2-2.2-4.4,0.1-7L211.5-14c2.2-2.7,5.9-3.9,8.1-2.7
				c2.2,1.2,2.2,4.4-0.1,7L112.6,118C110.9,119.9,108.5,121.1,106.5,121.1z"/>
		</g>
		<g class="st5">
			<path class="st6" d="M116.9,121.1c-0.7,0-1.4-0.2-2-0.5c-2.2-1.2-2.2-4.4,0.1-7L221.9-14c2.2-2.7,5.9-3.9,8.1-2.7
				c2.2,1.2,2.2,4.4-0.1,7L123,118C121.3,119.9,118.9,121.1,116.9,121.1z"/>
		</g>
		<g class="st5">
			<path class="st0" d="M127.9,121.1c-0.7,0-1.4-0.2-2-0.5c-2.2-1.2-2.2-4.4,0.1-7L233-14c2.2-2.7,5.9-3.9,8.1-2.7
				c2.2,1.2,2.2,4.4-0.1,7L134,118C132.4,119.9,130,121.1,127.9,121.1z"/>
		</g>
		<g class="st5">
			<path class="st6" d="M138.4,121.1c-0.7,0-1.4-0.2-2-0.5c-2.2-1.2-2.2-4.4,0.1-7L243.4-14c2.2-2.7,5.9-3.9,8.1-2.7
				c2.2,1.2,2.2,4.4-0.1,7L144.4,118C142.8,119.9,140.4,121.1,138.4,121.1z"/>
		</g>
		<g class="st5">
			<path class="st0" d="M149.3,121.1c-0.7,0-1.4-0.2-2-0.5c-2.2-1.2-2.2-4.4,0.1-7L254.3-14c2.2-2.7,5.9-3.9,8.1-2.7
				c2.2,1.2,2.2,4.4-0.1,7L155.3,118C153.7,119.9,151.3,121.1,149.3,121.1z"/>
		</g>
		<g class="st5">
			<path class="st6" d="M159.7,121.1c-0.7,0-1.4-0.2-2-0.5c-2.2-1.2-2.2-4.4,0.1-7L264.7-14c2.2-2.7,5.9-3.9,8.1-2.7
				c2.2,1.2,2.2,4.4-0.1,7L165.8,118C164.1,119.9,161.7,121.1,159.7,121.1z"/>
		</g>
		<g class="st5">
			<path class="st0" d="M170.7,121.1c-0.7,0-1.4-0.2-2-0.5c-2.2-1.2-2.2-4.4,0.1-7L275.8-14c2.2-2.7,5.9-3.9,8.1-2.7
				c2.2,1.2,2.2,4.4-0.1,7L176.8,118C175.2,119.9,172.8,121.1,170.7,121.1z"/>
		</g>
		<g class="st5">
			<path class="st6" d="M181.2,121.1c-0.7,0-1.4-0.2-2-0.5c-2.2-1.2-2.2-4.4,0.1-7L286.2-14c2.2-2.7,5.9-3.9,8.1-2.7
				c2.2,1.2,2.2,4.4-0.1,7L187.2,118C185.6,119.9,183.2,121.1,181.2,121.1z"/>
		</g>
		<g class="st5">
			<path class="st0" d="M192,121.1c-0.7,0-1.4-0.2-2-0.5c-2.2-1.2-2.2-4.4,0.1-7L297-14c2.2-2.7,5.9-3.9,8.1-2.7
				c2.2,1.2,2.2,4.4-0.1,7L198.1,118C196.4,119.9,194,121.1,192,121.1z"/>
		</g>
		<g class="st5">
			<path class="st6" d="M202.4,121.1c-0.7,0-1.4-0.2-2-0.5c-2.2-1.2-2.2-4.4,0.1-7L307.4-14c2.2-2.7,5.9-3.9,8.1-2.7
				c2.2,1.2,2.2,4.4-0.1,7L208.5,118C206.8,119.9,204.4,121.1,202.4,121.1z"/>
		</g>
		<g class="st5">
			<path class="st0" d="M213.5,121.1c-0.7,0-1.4-0.2-2-0.5c-2.2-1.2-2.2-4.4,0.1-7L318.5-14c2.2-2.7,5.9-3.9,8.1-2.7
				c2.2,1.2,2.2,4.4-0.1,7L219.5,118C217.9,119.9,215.5,121.1,213.5,121.1z"/>
		</g>
		<g class="st5">
			<path class="st6" d="M223.9,121.1c-0.7,0-1.4-0.2-2-0.5c-2.2-1.2-2.2-4.4,0.1-7L328.9-14c2.2-2.7,5.9-3.9,8.1-2.7
				c2.2,1.2,2.2,4.4-0.1,7L229.9,118C228.3,119.9,225.9,121.1,223.9,121.1z"/>
		</g>
		<g class="st5">
			<path class="st0" d="M234.8,121.1c-0.7,0-1.4-0.2-2-0.5c-2.2-1.2-2.2-4.4,0.1-7L339.8-14c2.2-2.7,5.9-3.9,8.1-2.7
				c2.2,1.2,2.2,4.4-0.1,7L240.9,118C239.2,119.9,236.8,121.1,234.8,121.1z"/>
		</g>
		<g class="st5">
			<path class="st6" d="M245.2,121.1c-0.7,0-1.4-0.2-2-0.5c-2.2-1.2-2.2-4.4,0.1-7L350.2-14c2.2-2.7,5.9-3.9,8.1-2.7
				c2.2,1.2,2.2,4.4-0.1,7L251.3,118C249.6,119.9,247.2,121.1,245.2,121.1z"/>
		</g>
		<g class="st5">
			<path class="st0" d="M256.2,121.1c-0.7,0-1.4-0.2-2-0.5c-2.2-1.2-2.2-4.4,0.1-7L361.3-14c2.2-2.7,5.9-3.9,8.1-2.7
				c2.2,1.2,2.2,4.4-0.1,7L262.3,118C260.7,119.9,258.3,121.1,256.2,121.1z"/>
		</g>
		<g class="st5">
			<path class="st6" d="M266.7,121.1c-0.7,0-1.4-0.2-2-0.5c-2.2-1.2-2.2-4.4,0.1-7L371.7-14c2.2-2.7,5.9-3.9,8.1-2.7
				c2.2,1.2,2.2,4.4-0.1,7L272.7,118C271.1,119.9,268.7,121.1,266.7,121.1z"/>
		</g>
		<g class="st5">
			<path class="st0" d="M-64.3,121.1c-0.7,0-1.4-0.2-2-0.5c-2.2-1.2-2.2-4.4,0.1-7L40.8-14c2.2-2.7,5.9-3.9,8.1-2.7
				c2.2,1.2,2.2,4.4-0.1,7L-58.2,118C-59.9,119.9-62.2,121.1-64.3,121.1z"/>
		</g>
		<g class="st5">
			<path class="st6" d="M-53.9,121.1c-0.7,0-1.4-0.2-2-0.5c-2.2-1.2-2.2-4.4,0.1-7L51.2-14c2.2-2.7,5.9-3.9,8.1-2.7
				c2.2,1.2,2.2,4.4-0.1,7L-47.8,118C-49.4,119.9-51.8,121.1-53.9,121.1z"/>
		</g>
		<g class="st5">
			<path class="st0" d="M-42.8,121.1c-0.7,0-1.4-0.2-2-0.5c-2.2-1.2-2.2-4.4,0.1-7L62.2-14c2.2-2.7,5.9-3.9,8.1-2.7
				c2.2,1.2,2.2,4.4-0.1,7L-36.7,118C-38.4,119.9-40.8,121.1-42.8,121.1z"/>
		</g>
		<g class="st5">
			<path class="st6" d="M-32.4,121.1c-0.7,0-1.4-0.2-2-0.5c-2.2-1.2-2.2-4.4,0.1-7L72.6-14c2.2-2.7,5.9-3.9,8.1-2.7
				c2.2,1.2,2.2,4.4-0.1,7L-26.3,118C-28,119.9-30.4,121.1-32.4,121.1z"/>
		</g>
		<g class="st5">
			<path class="st0" d="M-21.5,121.1c-0.7,0-1.4-0.2-2-0.5c-2.2-1.2-2.2-4.4,0.1-7L83.5-14c2.2-2.7,5.9-3.9,8.1-2.7
				c2.2,1.2,2.2,4.4-0.1,7L-15.4,118C-17.1,119.9-19.5,121.1-21.5,121.1z"/>
		</g>
		<g class="st5">
			<path class="st6" d="M-11.1,121.1c-0.7,0-1.4-0.2-2-0.5c-2.2-1.2-2.2-4.4,0.1-7L94-14c2.2-2.7,5.9-3.9,8.1-2.7
				c2.2,1.2,2.2,4.4-0.1,7L-5,118C-6.7,119.9-9,121.1-11.1,121.1z"/>
		</g>
		<g class="st5">
			<path class="st0" d="M0,121.1c-0.7,0-1.4-0.2-2-0.5c-2.2-1.2-2.2-4.4,0.1-7L105-14c2.2-2.7,5.9-3.9,8.1-2.7
				c2.2,1.2,2.2,4.4-0.1,7L6,118C4.4,119.9,2,121.1,0,121.1z"/>
		</g>
		<g class="st5">
			<path class="st6" d="M10.4,121.1c-0.7,0-1.4-0.2-2-0.5c-2.2-1.2-2.2-4.4,0.1-7L115.4-14c2.2-2.7,5.9-3.9,8.1-2.7
				c2.2,1.2,2.2,4.4-0.1,7L16.5,118C14.8,119.9,12.4,121.1,10.4,121.1z"/>
		</g>
		<g class="st5">
			<path class="st0" d="M21.2,121.1c-0.7,0-1.4-0.2-2-0.5c-2.2-1.2-2.2-4.4,0.1-7L126.3-14c2.2-2.7,5.9-3.9,8.1-2.7
				c2.2,1.2,2.2,4.4-0.1,7L27.3,118C25.7,119.9,23.3,121.1,21.2,121.1z"/>
		</g>
		<g class="st5">
			<path class="st6" d="M31.6,121.1c-0.7,0-1.4-0.2-2-0.5c-2.2-1.2-2.2-4.4,0.1-7L136.7-14c2.2-2.7,5.9-3.9,8.1-2.7
				c2.2,1.2,2.2,4.4-0.1,7L37.7,118C36.1,119.9,33.7,121.1,31.6,121.1z"/>
		</g>
		<g class="st5">
			<path class="st0" d="M42.7,121.1c-0.7,0-1.4-0.2-2-0.5c-2.2-1.2-2.2-4.4,0.1-7L147.7-14c2.2-2.7,5.9-3.9,8.1-2.7
				c2.2,1.2,2.2,4.4-0.1,7L48.8,118C47.1,119.9,44.7,121.1,42.7,121.1z"/>
		</g>
		<g class="st5">
			<path class="st6" d="M53.1,121.1c-0.7,0-1.4-0.2-2-0.5c-2.2-1.2-2.2-4.4,0.1-7L158.1-14c2.2-2.7,5.9-3.9,8.1-2.7
				c2.2,1.2,2.2,4.4-0.1,7L59.2,118C57.5,119.9,55.1,121.1,53.1,121.1z"/>
		</g>
		<g class="st5">
			<path class="st0" d="M64,121.1c-0.7,0-1.4-0.2-2-0.5c-2.2-1.2-2.2-4.4,0.1-7L169-14c2.2-2.7,5.9-3.9,8.1-2.7
				c2.2,1.2,2.2,4.4-0.1,7L70.1,118C68.4,119.9,66,121.1,64,121.1z"/>
		</g>
		<g class="st5">
			<path class="st6" d="M74.4,121.1c-0.7,0-1.4-0.2-2-0.5c-2.2-1.2-2.2-4.4,0.1-7L179.5-14c2.2-2.7,5.9-3.9,8.1-2.7
				c2.2,1.2,2.2,4.4-0.1,7L80.5,118C78.9,119.9,76.5,121.1,74.4,121.1z"/>
		</g>
		<g class="st5">
			<path class="st0" d="M85.5,121.1c-0.7,0-1.4-0.2-2-0.5c-2.2-1.2-2.2-4.4,0.1-7L190.5-14c2.2-2.7,5.9-3.9,8.1-2.7
				c2.2,1.2,2.2,4.4-0.1,7L91.6,118C89.9,119.9,87.5,121.1,85.5,121.1z"/>
		</g>
		<g class="st5">
			<path class="st6" d="M95.9,121.1c-0.7,0-1.4-0.2-2-0.5c-2.2-1.2-2.2-4.4,0.1-7L200.9-14c2.2-2.7,5.9-3.9,8.1-2.7
				c2.2,1.2,2.2,4.4-0.1,7L102,118C100.3,119.9,97.9,121.1,95.9,121.1z"/>
		</g>
		<g class="st5">
			<path class="st0" d="M280.1,118c-0.7,0-1.4-0.2-2-0.5c-2.2-1.2-2.2-4.4,0.1-7l107-127.6c2.2-2.7,5.9-3.9,8.1-2.7
				c2.2,1.2,2.2,4.4-0.1,7l-107,127.6C284.5,116.8,282.1,118,280.1,118z"/>
		</g>
		<g class="st5">
			<path class="st6" d="M290.5,118c-0.7,0-1.4-0.2-2-0.5c-2.2-1.2-2.2-4.4,0.1-7l107-127.6c2.2-2.7,5.9-3.9,8.1-2.7
				c2.2,1.2,2.2,4.4-0.1,7l-107,127.6C294.9,116.8,292.5,118,290.5,118z"/>
		</g>
		<g class="st5">
			<path class="st0" d="M301.5,118c-0.7,0-1.4-0.2-2-0.5c-2.2-1.2-2.2-4.4,0.1-7l107-127.6c2.2-2.7,5.9-3.9,8.1-2.7
				c2.2,1.2,2.2,4.4-0.1,7l-107,127.6C305.9,116.8,303.6,118,301.5,118z"/>
		</g>
		<g class="st5">
			<path class="st6" d="M311.9,118c-0.7,0-1.4-0.2-2-0.5c-2.2-1.2-2.2-4.4,0.1-7L417-17.1c2.2-2.7,5.9-3.9,8.1-2.7
				c2.2,1.2,2.2,4.4-0.1,7L318,114.8C316.4,116.8,314,118,311.9,118z"/>
		</g>
		<g class="st5">
			<path class="st0" d="M322.8,118c-0.7,0-1.4-0.2-2-0.5c-2.2-1.2-2.2-4.4,0.1-7l107-127.6c2.2-2.7,5.9-3.9,8.1-2.7
				c2.2,1.2,2.2,4.4-0.1,7l-107,127.6C327.3,116.8,324.9,118,322.8,118z"/>
		</g>
		<g class="st5">
			<path class="st6" d="M333.3,118c-0.7,0-1.4-0.2-2-0.5c-2.2-1.2-2.2-4.4,0.1-7l107-127.6c2.2-2.7,5.9-3.9,8.1-2.7
				c2.2,1.2,2.2,4.4-0.1,7l-107,127.6C337.7,116.8,335.3,118,333.3,118z"/>
		</g>
		<g class="st5">
			<path class="st0" d="M344.3,118c-0.7,0-1.4-0.2-2-0.5c-2.2-1.2-2.2-4.4,0.1-7l107-127.6c2.2-2.7,5.9-3.9,8.1-2.7
				c2.2,1.2,2.2,4.4-0.1,7l-107,127.6C348.7,116.8,346.3,118,344.3,118z"/>
		</g>
		<g class="st5">
			<path class="st6" d="M354.7,118c-0.7,0-1.4-0.2-2-0.5c-2.2-1.2-2.2-4.4,0.1-7l107-127.6c2.2-2.7,5.9-3.9,8.1-2.7
				c2.2,1.2,2.2,4.4-0.1,7l-107,127.6C359.1,116.8,356.8,118,354.7,118z"/>
		</g>
		<g class="st5">
			<path class="st0" d="M365.6,118c-0.7,0-1.4-0.2-2-0.5c-2.2-1.2-2.2-4.4,0.1-7l107-127.6c2.2-2.7,5.9-3.9,8.1-2.7
				c2.2,1.2,2.2,4.4-0.1,7l-107,127.6C370,116.8,367.6,118,365.6,118z"/>
		</g>
		<g class="st5">
			<path class="st6" d="M376,118c-0.7,0-1.4-0.2-2-0.5c-2.2-1.2-2.2-4.4,0.1-7L481-17.1c2.2-2.7,5.9-3.9,8.1-2.7
				c2.2,1.2,2.2,4.4-0.1,7l-107,127.6C380.4,116.8,378,118,376,118z"/>
		</g>
		<g class="st5">
			<path class="st0" d="M387,118c-0.7,0-1.4-0.2-2-0.5c-2.2-1.2-2.2-4.4,0.1-7l107-127.6c2.2-2.7,5.9-3.9,8.1-2.7
				c2.2,1.2,2.2,4.4-0.1,7l-107,127.6C391.5,116.8,389.1,118,387,118z"/>
		</g>
		<g class="st5">
			<path class="st6" d="M397.4,118c-0.7,0-1.4-0.2-2-0.5c-2.2-1.2-2.2-4.4,0.1-7l107-127.6c2.2-2.7,5.9-3.9,8.1-2.7
				c2.2,1.2,2.2,4.4-0.1,7l-107,127.6C401.9,116.8,399.5,118,397.4,118z"/>
		</g>
		<g class="st5">
			<path class="st0" d="M408.4,118c-0.7,0-1.4-0.2-2-0.5c-2.2-1.2-2.2-4.4,0.1-7l107-127.6c2.2-2.7,5.9-3.9,8.1-2.7
				c2.2,1.2,2.2,4.4-0.1,7l-107,127.6C412.8,116.8,410.4,118,408.4,118z"/>
		</g>
		<g class="st5">
			<path class="st6" d="M418.8,118c-0.7,0-1.4-0.2-2-0.5c-2.2-1.2-2.2-4.4,0.1-7l107-127.6c2.2-2.7,5.9-3.9,8.1-2.7
				c2.2,1.2,2.2,4.4-0.1,7l-107,127.6C423.2,116.8,420.8,118,418.8,118z"/>
		</g>
		<g class="st5">
			<path class="st0" d="M429.8,118c-0.7,0-1.4-0.2-2-0.5c-2.2-1.2-2.2-4.4,0.1-7l107-127.6c2.2-2.7,5.9-3.9,8.1-2.7
				c2.2,1.2,2.2,4.4-0.1,7l-107,127.6C434.2,116.8,431.8,118,429.8,118z"/>
		</g>
		<g class="st5">
			<path class="st6" d="M440.2,118c-0.7,0-1.4-0.2-2-0.5c-2.2-1.2-2.2-4.4,0.1-7l107-127.6c2.2-2.7,5.9-3.9,8.1-2.7
				c2.2,1.2,2.2,4.4-0.1,7l-107,127.6C444.7,116.8,442.3,118,440.2,118z"/>
		</g>
		<g class="st5">
			<path class="st0" d="M451.6,118c-0.7,0-1.4-0.2-2-0.5c-2.2-1.2-2.2-4.4,0.1-7l107-127.6c2.2-2.7,5.9-3.9,8.1-2.7
				c2.2,1.2,2.2,4.4-0.1,7l-107,127.6C456.1,116.8,453.7,118,451.6,118z"/>
		</g>
		<g class="st5">
			<path class="st6" d="M462.1,118c-0.7,0-1.4-0.2-2-0.5c-2.2-1.2-2.2-4.4,0.1-7l107-127.6c2.2-2.7,5.9-3.9,8.1-2.7
				c2.2,1.2,2.2,4.4-0.1,7l-107,127.6C466.5,116.8,464.1,118,462.1,118z"/>
		</g>
		<g class="st5">
			<path class="st0" d="M473.1,118c-0.7,0-1.4-0.2-2-0.5c-2.2-1.2-2.2-4.4,0.1-7l107-127.6c2.2-2.7,5.9-3.9,8.1-2.7
				c2.2,1.2,2.2,4.4-0.1,7l-107,127.6C477.5,116.8,475.1,118,473.1,118z"/>
		</g>
		<g class="st5">
			<path class="st6" d="M483.5,118c-0.7,0-1.4-0.2-2-0.5c-2.2-1.2-2.2-4.4,0.1-7l107-127.6c2.2-2.7,5.9-3.9,8.1-2.7
				c2.2,1.2,2.2,4.4-0.1,7l-107,127.6C487.9,116.8,485.6,118,483.5,118z"/>
		</g>
		<g class="st5">
			<path class="st0" d="M494.4,118c-0.7,0-1.4-0.2-2-0.5c-2.2-1.2-2.2-4.4,0.1-7l107-127.6c2.2-2.7,5.9-3.9,8.1-2.7
				c2.2,1.2,2.2,4.4-0.1,7l-107,127.6C498.8,116.8,496.4,118,494.4,118z"/>
		</g>
		<g class="st5">
			<path class="st6" d="M504.8,118c-0.7,0-1.4-0.2-2-0.5c-2.2-1.2-2.2-4.4,0.1-7l107-127.6c2.2-2.7,5.9-3.9,8.1-2.7
				c2.2,1.2,2.2,4.4-0.1,7l-107,127.6C509.2,116.8,506.8,118,504.8,118z"/>
		</g>
		<g class="st5">
			<path class="st0" d="M515.8,118c-0.7,0-1.4-0.2-2-0.5c-2.2-1.2-2.2-4.4,0.1-7l107-127.6c2.2-2.7,5.9-3.9,8.1-2.7
				c2.2,1.2,2.2,4.4-0.1,7l-107,127.6C520.3,116.8,517.9,118,515.8,118z"/>
		</g>
		<g class="st5">
			<path class="st6" d="M526.2,118c-0.7,0-1.4-0.2-2-0.5c-2.2-1.2-2.2-4.4,0.1-7l107-127.6c2.2-2.7,5.9-3.9,8.1-2.7
				c2.2,1.2,2.2,4.4-0.1,7l-107,127.6C530.7,116.8,528.3,118,526.2,118z"/>
		</g>
		<g class="st5">
			<path class="st0" d="M537.2,118c-0.7,0-1.4-0.2-2-0.5c-2.2-1.2-2.2-4.4,0.1-7l107-127.6c2.2-2.7,5.9-3.9,8.1-2.7
				c2.2,1.2,2.2,4.4-0.1,7l-107,127.6C541.6,116.8,539.2,118,537.2,118z"/>
		</g>
		<g class="st5">
			<path class="st6" d="M547.6,118c-0.7,0-1.4-0.2-2-0.5c-2.2-1.2-2.2-4.4,0.1-7l107-127.6c2.2-2.7,5.9-3.9,8.1-2.7
				c2.2,1.2,2.2,4.4-0.1,7l-107,127.6C552,116.8,549.6,118,547.6,118z"/>
		</g>
		<g class="st5">
			<path class="st0" d="M558.6,118c-0.7,0-1.4-0.2-2-0.5c-2.2-1.2-2.2-4.4,0.1-7l107-127.6c2.2-2.7,5.9-3.9,8.1-2.7
				c2.2,1.2,2.2,4.4-0.1,7l-107,127.6C563,116.8,560.6,118,558.6,118z"/>
		</g>
		<g class="st5">
			<path class="st6" d="M569,118c-0.7,0-1.4-0.2-2-0.5c-2.2-1.2-2.2-4.4,0.1-7l107-127.6c2.2-2.7,5.9-3.9,8.1-2.7
				c2.2,1.2,2.2,4.4-0.1,7l-107,127.6C573.5,116.8,571.1,118,569,118z"/>
		</g>
	</g>
</g>
</svg>
