<?xml version="1.0" encoding="utf-8"?>
<!-- Generator: Adobe Illustrator 19.1.1, SVG Export Plug-In . SVG Version: 6.00 Build 0)  -->
<svg version="1.1" xmlns="http://www.w3.org/2000/svg" xmlns:xlink="http://www.w3.org/1999/xlink" x="0px" y="0px" width="599px"
	 height="150.7px" viewBox="0 0 599 150.7" style="enable-background:new 0 0 599 150.7;" xml:space="preserve">
<style type="text/css">
	.st0{font-family:'Coquette';}
	.st1{font-size:109.7185px;}
	.st2{letter-spacing:3.4;}
	.st3{font-family:'Coquette-Bold';}
	.st4{fill:#F37029;}
	.st5{fill:#75C043;}
	.st6{font-family:'AzoSansUber-Regular';}
	.st7{font-size:118.8617px;}
	.st8{display:none;fill:#F15A29;stroke:#000000;stroke-width:4;stroke-miterlimit:10;}
	.st9{fill:none;stroke:#F37029;stroke-width:10;stroke-linecap:round;stroke-miterlimit:10;}
	.st10{display:none;}
	.st11{display:inline;}
	.st12{fill:#FFFFFF;}
	.st13{fill:#ED1C24;}
</style>
<g id="Layer_1">
</g>
<g id="Layer_2">
	<g>
		<text transform="matrix(0.583 0 0 0.583 319.9415 87.6727)"><tspan x="0" y="0" class="st0 st1 st2">{</tspan><tspan x="35.2" y="0" class="st3 st1 st2">∙</tspan><tspan x="69.8" y="0" class="st4 st0 st1 st2">Curly</tspan><tspan x="339.1" y="0" class="st3 st1 st2">∙</tspan><tspan x="373.7" y="0" class="st0 st1 st2">}</tspan></text>
		<text transform="matrix(1 0 0 1 47.2633 124.206)" class="st5 st6 st7">RDL</text>
	</g>
	<path class="st8" d="M524.5,140.4H34v0c-12.5,0-22.8-10.2-22.8-22.8c0-12.5,10.2-22.8,22.8-22.8c2.8,0,5,2.2,5,5s-2.2,5-5,5
		c-7,0-12.8,5.7-12.8,12.8c0,7,5.7,12.8,12.8,12.8l3.4,0c0.2,0,0.3,0,0.5,0c0.2,0,0.3,0,0.3,0v0H508c0.5-0.1,1.1-0.2,1.8-0.2
		c0.5,0,1.4,0,2.6,0c2.4,0,6.3,0,12,0c31.5,0,55.3-23.8,55.3-55.3c0-29.4-25.8-55.3-55.3-55.3c-2.8,0-5-2.2-5-5s2.2-5,5-5
		c35.4,0,65.3,29.9,65.3,65.3c0,37.2-28.1,65.3-65.3,65.3V140.4z"/>
	<path class="st9" d="M524.5,14.6c31.6,0,60.3,27,60.3,60.3c0,34.3-25.7,60.3-60.3,60.3s0,0.3,0,0.3s-475.6,0-490.5,0c0,0,9.8,0,0,0
		s-17.8-8-17.8-17.8s8-17.8,17.8-17.8"/>
	<g class="st10">
		<g class="st11">
			<path class="st12" d="M150.3,148.3c-0.7,0-1.4-0.2-2-0.5c-2.2-1.2-2.2-4.4,0.1-7l107-127.6c2.2-2.7,5.9-3.9,8.1-2.7
				c2.2,1.2,2.2,4.4-0.1,7l-107,127.6C154.7,147.1,152.3,148.3,150.3,148.3z"/>
		</g>
		<g class="st11">
			<path class="st13" d="M160.7,148.3c-0.7,0-1.4-0.2-2-0.5c-2.2-1.2-2.2-4.4,0.1-7l107-127.6c2.2-2.7,5.9-3.9,8.1-2.7
				c2.2,1.2,2.2,4.4-0.1,7l-107,127.6C165.1,147.1,162.7,148.3,160.7,148.3z"/>
		</g>
		<g class="st11">
			<path class="st12" d="M171.8,148.3c-0.7,0-1.4-0.2-2-0.5c-2.2-1.2-2.2-4.4,0.1-7l107-127.6c2.2-2.7,5.9-3.9,8.1-2.7
				c2.2,1.2,2.2,4.4-0.1,7l-107,127.6C176.2,147.1,173.8,148.3,171.8,148.3z"/>
		</g>
		<g class="st11">
			<path class="st13" d="M182.2,148.3c-0.7,0-1.4-0.2-2-0.5c-2.2-1.2-2.2-4.4,0.1-7l107-127.6c2.2-2.7,5.9-3.9,8.1-2.7
				c2.2,1.2,2.2,4.4-0.1,7l-107,127.6C186.6,147.1,184.2,148.3,182.2,148.3z"/>
		</g>
		<g class="st11">
			<path class="st12" d="M193.1,148.3c-0.7,0-1.4-0.2-2-0.5c-2.2-1.2-2.2-4.4,0.1-7l107-127.6c2.2-2.7,5.9-3.9,8.1-2.7
				c2.2,1.2,2.2,4.4-0.1,7l-107,127.6C197.5,147.1,195.1,148.3,193.1,148.3z"/>
		</g>
		<g class="st11">
			<path class="st13" d="M203.5,148.3c-0.7,0-1.4-0.2-2-0.5c-2.2-1.2-2.2-4.4,0.1-7l107-127.6c2.2-2.7,5.9-3.9,8.1-2.7
				c2.2,1.2,2.2,4.4-0.1,7l-107,127.6C207.9,147.1,205.5,148.3,203.5,148.3z"/>
		</g>
		<g class="st11">
			<path class="st12" d="M214.6,148.3c-0.7,0-1.4-0.2-2-0.5c-2.2-1.2-2.2-4.4,0.1-7l107-127.6c2.2-2.7,5.9-3.9,8.1-2.7
				c2.2,1.2,2.2,4.4-0.1,7l-107,127.6C219,147.1,216.6,148.3,214.6,148.3z"/>
		</g>
		<g class="st11">
			<path class="st13" d="M225,148.3c-0.7,0-1.4-0.2-2-0.5c-2.2-1.2-2.2-4.4,0.1-7L330,13.2c2.2-2.7,5.9-3.9,8.1-2.7
				c2.2,1.2,2.2,4.4-0.1,7L231,145.2C229.4,147.1,227,148.3,225,148.3z"/>
		</g>
		<g class="st11">
			<path class="st12" d="M235.8,148.3c-0.7,0-1.4-0.2-2-0.5c-2.2-1.2-2.2-4.4,0.1-7l107-127.6c2.2-2.7,5.9-3.9,8.1-2.7
				c2.2,1.2,2.2,4.4-0.1,7l-107,127.6C240.2,147.1,237.8,148.3,235.8,148.3z"/>
		</g>
		<g class="st11">
			<path class="st13" d="M246.2,148.3c-0.7,0-1.4-0.2-2-0.5c-2.2-1.2-2.2-4.4,0.1-7l107-127.6c2.2-2.7,5.9-3.9,8.1-2.7
				c2.2,1.2,2.2,4.4-0.1,7l-107,127.6C250.6,147.1,248.3,148.3,246.2,148.3z"/>
		</g>
		<g class="st11">
			<path class="st12" d="M257.3,148.3c-0.7,0-1.4-0.2-2-0.5c-2.2-1.2-2.2-4.4,0.1-7l107-127.6c2.2-2.7,5.9-3.9,8.1-2.7
				c2.2,1.2,2.2,4.4-0.1,7l-107,127.6C261.7,147.1,259.3,148.3,257.3,148.3z"/>
		</g>
		<g class="st11">
			<path class="st13" d="M267.7,148.3c-0.7,0-1.4-0.2-2-0.5c-2.2-1.2-2.2-4.4,0.1-7l107-127.6c2.2-2.7,5.9-3.9,8.1-2.7
				c2.2,1.2,2.2,4.4-0.1,7l-107,127.6C272.1,147.1,269.7,148.3,267.7,148.3z"/>
		</g>
		<g class="st11">
			<path class="st12" d="M278.6,148.3c-0.7,0-1.4-0.2-2-0.5c-2.2-1.2-2.2-4.4,0.1-7l107-127.6c2.2-2.7,5.9-3.9,8.1-2.7
				c2.2,1.2,2.2,4.4-0.1,7l-107,127.6C283,147.1,280.6,148.3,278.6,148.3z"/>
		</g>
		<g class="st11">
			<path class="st13" d="M289,148.3c-0.7,0-1.4-0.2-2-0.5c-2.2-1.2-2.2-4.4,0.1-7L394,13.2c2.2-2.7,5.9-3.9,8.1-2.7
				c2.2,1.2,2.2,4.4-0.1,7l-107,127.6C293.4,147.1,291,148.3,289,148.3z"/>
		</g>
		<g class="st11">
			<path class="st12" d="M300.1,148.3c-0.7,0-1.4-0.2-2-0.5c-2.2-1.2-2.2-4.4,0.1-7l107-127.6c2.2-2.7,5.9-3.9,8.1-2.7
				c2.2,1.2,2.2,4.4-0.1,7l-107,127.6C304.5,147.1,302.1,148.3,300.1,148.3z"/>
		</g>
		<g class="st11">
			<path class="st13" d="M310.5,148.3c-0.7,0-1.4-0.2-2-0.5c-2.2-1.2-2.2-4.4,0.1-7l107-127.6c2.2-2.7,5.9-3.9,8.1-2.7
				c2.2,1.2,2.2,4.4-0.1,7l-107,127.6C314.9,147.1,312.5,148.3,310.5,148.3z"/>
		</g>
		<g class="st11">
			<path class="st12" d="M-20.5,148.3c-0.7,0-1.4-0.2-2-0.5c-2.2-1.2-2.2-4.4,0.1-7l107-127.6c2.2-2.7,5.9-3.9,8.1-2.7
				c2.2,1.2,2.2,4.4-0.1,7l-107,127.6C-16,147.1-18.4,148.3-20.5,148.3z"/>
		</g>
		<g class="st11">
			<path class="st13" d="M-10,148.3c-0.7,0-1.4-0.2-2-0.5c-2.2-1.2-2.2-4.4,0.1-7L95,13.2c2.2-2.7,5.9-3.9,8.1-2.7
				c2.2,1.2,2.2,4.4-0.1,7L-4,145.2C-5.6,147.1-8,148.3-10,148.3z"/>
		</g>
		<g class="st11">
			<path class="st12" d="M1,148.3c-0.7,0-1.4-0.2-2-0.5c-2.2-1.2-2.2-4.4,0.1-7L106,13.2c2.2-2.7,5.9-3.9,8.1-2.7
				c2.2,1.2,2.2,4.4-0.1,7L7.1,145.2C5.4,147.1,3,148.3,1,148.3z"/>
		</g>
		<g class="st11">
			<path class="st13" d="M11.4,148.3c-0.7,0-1.4-0.2-2-0.5c-2.2-1.2-2.2-4.4,0.1-7l107-127.6c2.2-2.7,5.9-3.9,8.1-2.7
				c2.2,1.2,2.2,4.4-0.1,7l-107,127.6C15.8,147.1,13.5,148.3,11.4,148.3z"/>
		</g>
		<g class="st11">
			<path class="st12" d="M22.3,148.3c-0.7,0-1.4-0.2-2-0.5c-2.2-1.2-2.2-4.4,0.1-7l107-127.6c2.2-2.7,5.9-3.9,8.1-2.7
				c2.2,1.2,2.2,4.4-0.1,7l-107,127.6C26.8,147.1,24.4,148.3,22.3,148.3z"/>
		</g>
		<g class="st11">
			<path class="st13" d="M32.7,148.3c-0.7,0-1.4-0.2-2-0.5c-2.2-1.2-2.2-4.4,0.1-7l107-127.6c2.2-2.7,5.9-3.9,8.1-2.7
				c2.2,1.2,2.2,4.4-0.1,7l-107,127.6C37.2,147.1,34.8,148.3,32.7,148.3z"/>
		</g>
		<g class="st11">
			<path class="st12" d="M43.8,148.3c-0.7,0-1.4-0.2-2-0.5c-2.2-1.2-2.2-4.4,0.1-7l107-127.6c2.2-2.7,5.9-3.9,8.1-2.7
				c2.2,1.2,2.2,4.4-0.1,7l-107,127.6C48.2,147.1,45.8,148.3,43.8,148.3z"/>
		</g>
		<g class="st11">
			<path class="st13" d="M54.2,148.3c-0.7,0-1.4-0.2-2-0.5c-2.2-1.2-2.2-4.4,0.1-7l107-127.6c2.2-2.7,5.9-3.9,8.1-2.7
				c2.2,1.2,2.2,4.4-0.1,7l-107,127.6C58.6,147.1,56.2,148.3,54.2,148.3z"/>
		</g>
		<g class="st11">
			<path class="st12" d="M65.1,148.3c-0.7,0-1.4-0.2-2-0.5c-2.2-1.2-2.2-4.4,0.1-7l107-127.6c2.2-2.7,5.9-3.9,8.1-2.7
				c2.2,1.2,2.2,4.4-0.1,7l-107,127.6C69.5,147.1,67.1,148.3,65.1,148.3z"/>
		</g>
		<g class="st11">
			<path class="st13" d="M75.5,148.3c-0.7,0-1.4-0.2-2-0.5c-2.2-1.2-2.2-4.4,0.1-7l107-127.6c2.2-2.7,5.9-3.9,8.1-2.7
				c2.2,1.2,2.2,4.4-0.1,7l-107,127.6C79.9,147.1,77.5,148.3,75.5,148.3z"/>
		</g>
		<g class="st11">
			<path class="st12" d="M86.5,148.3c-0.7,0-1.4-0.2-2-0.5c-2.2-1.2-2.2-4.4,0.1-7l107-127.6c2.2-2.7,5.9-3.9,8.1-2.7
				c2.2,1.2,2.2,4.4-0.1,7l-107,127.6C90.9,147.1,88.5,148.3,86.5,148.3z"/>
		</g>
		<g class="st11">
			<path class="st13" d="M96.9,148.3c-0.7,0-1.4-0.2-2-0.5c-2.2-1.2-2.2-4.4,0.1-7L202,13.2c2.2-2.7,5.9-3.9,8.1-2.7
				c2.2,1.2,2.2,4.4-0.1,7L103,145.2C101.4,147.1,99,148.3,96.9,148.3z"/>
		</g>
		<g class="st11">
			<path class="st12" d="M107.8,148.3c-0.7,0-1.4-0.2-2-0.5c-2.2-1.2-2.2-4.4,0.1-7l107-127.6c2.2-2.7,5.9-3.9,8.1-2.7
				c2.2,1.2,2.2,4.4-0.1,7l-107,127.6C112.3,147.1,109.9,148.3,107.8,148.3z"/>
		</g>
		<g class="st11">
			<path class="st13" d="M118.3,148.3c-0.7,0-1.4-0.2-2-0.5c-2.2-1.2-2.2-4.4,0.1-7l107-127.6c2.2-2.7,5.9-3.9,8.1-2.7
				c2.2,1.2,2.2,4.4-0.1,7l-107,127.6C122.7,147.1,120.3,148.3,118.3,148.3z"/>
		</g>
		<g class="st11">
			<path class="st12" d="M129.3,148.3c-0.7,0-1.4-0.2-2-0.5c-2.2-1.2-2.2-4.4,0.1-7l107-127.6c2.2-2.7,5.9-3.9,8.1-2.7
				c2.2,1.2,2.2,4.4-0.1,7l-107,127.6C133.7,147.1,131.3,148.3,129.3,148.3z"/>
		</g>
		<g class="st11">
			<path class="st13" d="M139.7,148.3c-0.7,0-1.4-0.2-2-0.5c-2.2-1.2-2.2-4.4,0.1-7l107-127.6c2.2-2.7,5.9-3.9,8.1-2.7
				c2.2,1.2,2.2,4.4-0.1,7l-107,127.6C144.1,147.1,141.7,148.3,139.7,148.3z"/>
		</g>
		<g class="st11">
			<path class="st12" d="M323.9,145.1c-0.7,0-1.4-0.2-2-0.5c-2.2-1.2-2.2-4.4,0.1-7l107-127.6c2.2-2.7,5.9-3.9,8.1-2.7
				c2.2,1.2,2.2,4.4-0.1,7L330,142C328.3,144,325.9,145.1,323.9,145.1z"/>
		</g>
		<g class="st11">
			<path class="st13" d="M334.3,145.1c-0.7,0-1.4-0.2-2-0.5c-2.2-1.2-2.2-4.4,0.1-7l107-127.6c2.2-2.7,5.9-3.9,8.1-2.7
				c2.2,1.2,2.2,4.4-0.1,7L340.4,142C338.7,144,336.3,145.1,334.3,145.1z"/>
		</g>
		<g class="st11">
			<path class="st12" d="M345.3,145.1c-0.7,0-1.4-0.2-2-0.5c-2.2-1.2-2.2-4.4,0.1-7l107-127.6c2.2-2.7,5.9-3.9,8.1-2.7
				c2.2,1.2,2.2,4.4-0.1,7L351.4,142C349.8,144,347.4,145.1,345.3,145.1z"/>
		</g>
		<g class="st11">
			<path class="st13" d="M355.8,145.1c-0.7,0-1.4-0.2-2-0.5c-2.2-1.2-2.2-4.4,0.1-7l107-127.6c2.2-2.7,5.9-3.9,8.1-2.7
				c2.2,1.2,2.2,4.4-0.1,7L361.8,142C360.2,144,357.8,145.1,355.8,145.1z"/>
		</g>
		<g class="st11">
			<path class="st12" d="M366.7,145.1c-0.7,0-1.4-0.2-2-0.5c-2.2-1.2-2.2-4.4,0.1-7l107-127.6c2.2-2.7,5.9-3.9,8.1-2.7
				c2.2,1.2,2.2,4.4-0.1,7L372.7,142C371.1,144,368.7,145.1,366.7,145.1z"/>
		</g>
		<g class="st11">
			<path class="st13" d="M377.1,145.1c-0.7,0-1.4-0.2-2-0.5c-2.2-1.2-2.2-4.4,0.1-7l107-127.6c2.2-2.7,5.9-3.9,8.1-2.7
				c2.2,1.2,2.2,4.4-0.1,7L383.2,142C381.5,144,379.1,145.1,377.1,145.1z"/>
		</g>
		<g class="st11">
			<path class="st12" d="M388.1,145.1c-0.7,0-1.4-0.2-2-0.5c-2.2-1.2-2.2-4.4,0.1-7l107-127.6c2.2-2.7,5.9-3.9,8.1-2.7
				c2.2,1.2,2.2,4.4-0.1,7L394.2,142C392.5,144,390.2,145.1,388.1,145.1z"/>
		</g>
		<g class="st11">
			<path class="st13" d="M398.5,145.1c-0.7,0-1.4-0.2-2-0.5c-2.2-1.2-2.2-4.4,0.1-7l107-127.6c2.2-2.7,5.9-3.9,8.1-2.7
				c2.2,1.2,2.2,4.4-0.1,7L404.6,142C403,144,400.6,145.1,398.5,145.1z"/>
		</g>
		<g class="st11">
			<path class="st12" d="M409.4,145.1c-0.7,0-1.4-0.2-2-0.5c-2.2-1.2-2.2-4.4,0.1-7l107-127.6c2.2-2.7,5.9-3.9,8.1-2.7
				c2.2,1.2,2.2,4.4-0.1,7L415.5,142C413.8,144,411.4,145.1,409.4,145.1z"/>
		</g>
		<g class="st11">
			<path class="st13" d="M419.8,145.1c-0.7,0-1.4-0.2-2-0.5c-2.2-1.2-2.2-4.4,0.1-7l107-127.6c2.2-2.7,5.9-3.9,8.1-2.7
				c2.2,1.2,2.2,4.4-0.1,7L425.9,142C424.2,144,421.8,145.1,419.8,145.1z"/>
		</g>
		<g class="st11">
			<path class="st12" d="M430.8,145.1c-0.7,0-1.4-0.2-2-0.5c-2.2-1.2-2.2-4.4,0.1-7l107-127.6c2.2-2.7,5.9-3.9,8.1-2.7
				c2.2,1.2,2.2,4.4-0.1,7L436.9,142C435.3,144,432.9,145.1,430.8,145.1z"/>
		</g>
		<g class="st11">
			<path class="st13" d="M441.3,145.1c-0.7,0-1.4-0.2-2-0.5c-2.2-1.2-2.2-4.4,0.1-7l107-127.6c2.2-2.7,5.9-3.9,8.1-2.7
				c2.2,1.2,2.2,4.4-0.1,7L447.3,142C445.7,144,443.3,145.1,441.3,145.1z"/>
		</g>
		<g class="st11">
			<path class="st12" d="M452.2,145.1c-0.7,0-1.4-0.2-2-0.5c-2.2-1.2-2.2-4.4,0.1-7l107-127.6c2.2-2.7,5.9-3.9,8.1-2.7
				c2.2,1.2,2.2,4.4-0.1,7L458.2,142C456.6,144,454.2,145.1,452.2,145.1z"/>
		</g>
		<g class="st11">
			<path class="st13" d="M462.6,145.1c-0.7,0-1.4-0.2-2-0.5c-2.2-1.2-2.2-4.4,0.1-7l107-127.6c2.2-2.7,5.9-3.9,8.1-2.7
				c2.2,1.2,2.2,4.4-0.1,7L468.7,142C467,144,464.6,145.1,462.6,145.1z"/>
		</g>
		<g class="st11">
			<path class="st12" d="M473.6,145.1c-0.7,0-1.4-0.2-2-0.5c-2.2-1.2-2.2-4.4,0.1-7l107-127.6c2.2-2.7,5.9-3.9,8.1-2.7
				c2.2,1.2,2.2,4.4-0.1,7L479.7,142C478.1,144,475.7,145.1,473.6,145.1z"/>
		</g>
		<g class="st11">
			<path class="st13" d="M484,145.1c-0.7,0-1.4-0.2-2-0.5c-2.2-1.2-2.2-4.4,0.1-7l107-127.6c2.2-2.7,5.9-3.9,8.1-2.7
				c2.2,1.2,2.2,4.4-0.1,7L490.1,142C488.5,144,486.1,145.1,484,145.1z"/>
		</g>
		<g class="st11">
			<path class="st12" d="M495.5,145.1c-0.7,0-1.4-0.2-2-0.5c-2.2-1.2-2.2-4.4,0.1-7l107-127.6c2.2-2.7,5.9-3.9,8.1-2.7
				c2.2,1.2,2.2,4.4-0.1,7L501.5,142C499.9,144,497.5,145.1,495.5,145.1z"/>
		</g>
		<g class="st11">
			<path class="st13" d="M505.9,145.1c-0.7,0-1.4-0.2-2-0.5c-2.2-1.2-2.2-4.4,0.1-7l107-127.6c2.2-2.7,5.9-3.9,8.1-2.7
				c2.2,1.2,2.2,4.4-0.1,7L512,142C510.3,144,507.9,145.1,505.9,145.1z"/>
		</g>
		<g class="st11">
			<path class="st12" d="M516.9,145.1c-0.7,0-1.4-0.2-2-0.5c-2.2-1.2-2.2-4.4,0.1-7L622,10.1c2.2-2.7,5.9-3.9,8.1-2.7
				c2.2,1.2,2.2,4.4-0.1,7L523,142C521.3,144,519,145.1,516.9,145.1z"/>
		</g>
		<g class="st11">
			<path class="st13" d="M527.3,145.1c-0.7,0-1.4-0.2-2-0.5c-2.2-1.2-2.2-4.4,0.1-7l107-127.6c2.2-2.7,5.9-3.9,8.1-2.7
				c2.2,1.2,2.2,4.4-0.1,7L533.4,142C531.8,144,529.4,145.1,527.3,145.1z"/>
		</g>
		<g class="st11">
			<path class="st12" d="M538.2,145.1c-0.7,0-1.4-0.2-2-0.5c-2.2-1.2-2.2-4.4,0.1-7l107-127.6c2.2-2.7,5.9-3.9,8.1-2.7
				c2.2,1.2,2.2,4.4-0.1,7L544.3,142C542.6,144,540.2,145.1,538.2,145.1z"/>
		</g>
		<g class="st11">
			<path class="st13" d="M548.6,145.1c-0.7,0-1.4-0.2-2-0.5c-2.2-1.2-2.2-4.4,0.1-7l107-127.6c2.2-2.7,5.9-3.9,8.1-2.7
				c2.2,1.2,2.2,4.4-0.1,7L554.7,142C553,144,550.6,145.1,548.6,145.1z"/>
		</g>
		<g class="st11">
			<path class="st12" d="M559.6,145.1c-0.7,0-1.4-0.2-2-0.5c-2.2-1.2-2.2-4.4,0.1-7l107-127.6c2.2-2.7,5.9-3.9,8.1-2.7
				c2.2,1.2,2.2,4.4-0.1,7L565.7,142C564.1,144,561.7,145.1,559.6,145.1z"/>
		</g>
		<g class="st11">
			<path class="st13" d="M570.1,145.1c-0.7,0-1.4-0.2-2-0.5c-2.2-1.2-2.2-4.4,0.1-7l107-127.6c2.2-2.7,5.9-3.9,8.1-2.7
				c2.2,1.2,2.2,4.4-0.1,7L576.1,142C574.5,144,572.1,145.1,570.1,145.1z"/>
		</g>
		<g class="st11">
			<path class="st12" d="M581,145.1c-0.7,0-1.4-0.2-2-0.5c-2.2-1.2-2.2-4.4,0.1-7L686,10.1c2.2-2.7,5.9-3.9,8.1-2.7
				c2.2,1.2,2.2,4.4-0.1,7L587,142C585.4,144,583,145.1,581,145.1z"/>
		</g>
		<g class="st11">
			<path class="st13" d="M591.4,145.1c-0.7,0-1.4-0.2-2-0.5c-2.2-1.2-2.2-4.4,0.1-7l107-127.6c2.2-2.7,5.9-3.9,8.1-2.7
				c2.2,1.2,2.2,4.4-0.1,7L597.5,142C595.8,144,593.4,145.1,591.4,145.1z"/>
		</g>
		<g class="st11">
			<path class="st12" d="M602.4,145.1c-0.7,0-1.4-0.2-2-0.5c-2.2-1.2-2.2-4.4,0.1-7l107-127.6c2.2-2.7,5.9-3.9,8.1-2.7
				c2.2,1.2,2.2,4.4-0.1,7L608.5,142C606.9,144,604.5,145.1,602.4,145.1z"/>
		</g>
		<g class="st11">
			<path class="st13" d="M612.9,145.1c-0.7,0-1.4-0.2-2-0.5c-2.2-1.2-2.2-4.4,0.1-7l107-127.6c2.2-2.7,5.9-3.9,8.1-2.7
				c2.2,1.2,2.2,4.4-0.1,7L618.9,142C617.3,144,614.9,145.1,612.9,145.1z"/>
		</g>
	</g>
</g>
</svg>
